<?xml version="1.0" encoding="UTF-8" standalone="no"?>
<!-- Created with Inkscape (http://www.inkscape.org/) -->

<svg
   xmlns:dc="http://purl.org/dc/elements/1.1/"
   xmlns:cc="http://creativecommons.org/ns#"
   xmlns:rdf="http://www.w3.org/1999/02/22-rdf-syntax-ns#"
   xmlns:svg="http://www.w3.org/2000/svg"
   xmlns="http://www.w3.org/2000/svg"
   xmlns:sodipodi="http://sodipodi.sourceforge.net/DTD/sodipodi-0.dtd"
   xmlns:inkscape="http://www.inkscape.org/namespaces/inkscape"
   width="64"
   height="64"
   id="svg2"
   version="1.1"
   inkscape:version="0.47pre4 r22446"
   sodipodi:docname="steuer_icon.svg">
  <defs
     id="defs4">
    <inkscape:perspective
       sodipodi:type="inkscape:persp3d"
       inkscape:vp_x="0 : 526.18109 : 1"
       inkscape:vp_y="0 : 1000 : 0"
       inkscape:vp_z="744.09448 : 526.18109 : 1"
       inkscape:persp3d-origin="372.04724 : 350.78739 : 1"
       id="perspective10" />
    <inkscape:perspective
       id="perspective2828"
       inkscape:persp3d-origin="0.5 : 0.33333333 : 1"
       inkscape:vp_z="1 : 0.5 : 1"
       inkscape:vp_y="0 : 1000 : 0"
       inkscape:vp_x="0 : 0.5 : 1"
       sodipodi:type="inkscape:persp3d" />
    <inkscape:perspective
       id="perspective2854"
       inkscape:persp3d-origin="0.5 : 0.33333333 : 1"
       inkscape:vp_z="1 : 0.5 : 1"
       inkscape:vp_y="0 : 1000 : 0"
       inkscape:vp_x="0 : 0.5 : 1"
       sodipodi:type="inkscape:persp3d" />
    <inkscape:perspective
       id="perspective2854-7"
       inkscape:persp3d-origin="0.5 : 0.33333333 : 1"
       inkscape:vp_z="1 : 0.5 : 1"
       inkscape:vp_y="0 : 1000 : 0"
       inkscape:vp_x="0 : 0.5 : 1"
       sodipodi:type="inkscape:persp3d" />
    <inkscape:perspective
       id="perspective2854-4"
       inkscape:persp3d-origin="0.5 : 0.33333333 : 1"
       inkscape:vp_z="1 : 0.5 : 1"
       inkscape:vp_y="0 : 1000 : 0"
       inkscape:vp_x="0 : 0.5 : 1"
       sodipodi:type="inkscape:persp3d" />
    <inkscape:perspective
       id="perspective2854-6"
       inkscape:persp3d-origin="0.5 : 0.33333333 : 1"
       inkscape:vp_z="1 : 0.5 : 1"
       inkscape:vp_y="0 : 1000 : 0"
       inkscape:vp_x="0 : 0.5 : 1"
       sodipodi:type="inkscape:persp3d" />
    <inkscape:perspective
       id="perspective2915"
       inkscape:persp3d-origin="0.5 : 0.33333333 : 1"
       inkscape:vp_z="1 : 0.5 : 1"
       inkscape:vp_y="0 : 1000 : 0"
       inkscape:vp_x="0 : 0.5 : 1"
       sodipodi:type="inkscape:persp3d" />
    <inkscape:perspective
       id="perspective2915-0"
       inkscape:persp3d-origin="0.5 : 0.33333333 : 1"
       inkscape:vp_z="1 : 0.5 : 1"
       inkscape:vp_y="0 : 1000 : 0"
       inkscape:vp_x="0 : 0.5 : 1"
       sodipodi:type="inkscape:persp3d" />
    <inkscape:perspective
       id="perspective2915-1"
       inkscape:persp3d-origin="0.5 : 0.33333333 : 1"
       inkscape:vp_z="1 : 0.5 : 1"
       inkscape:vp_y="0 : 1000 : 0"
       inkscape:vp_x="0 : 0.5 : 1"
       sodipodi:type="inkscape:persp3d" />
    <inkscape:perspective
       id="perspective2915-5"
       inkscape:persp3d-origin="0.5 : 0.33333333 : 1"
       inkscape:vp_z="1 : 0.5 : 1"
       inkscape:vp_y="0 : 1000 : 0"
       inkscape:vp_x="0 : 0.5 : 1"
       sodipodi:type="inkscape:persp3d" />
    <inkscape:perspective
       id="perspective2915-10"
       inkscape:persp3d-origin="0.5 : 0.33333333 : 1"
       inkscape:vp_z="1 : 0.5 : 1"
       inkscape:vp_y="0 : 1000 : 0"
       inkscape:vp_x="0 : 0.5 : 1"
       sodipodi:type="inkscape:persp3d" />
  </defs>
  <sodipodi:namedview
     id="base"
     pagecolor="#ffffff"
     bordercolor="#666666"
     borderopacity="1.0"
     inkscape:pageopacity="0.0"
     inkscape:pageshadow="2"
     inkscape:zoom="11.327021"
     inkscape:cx="33.324267"
     inkscape:cy="32"
     inkscape:document-units="px"
     inkscape:current-layer="layer1"
     showgrid="false"
     inkscape:window-width="1400"
     inkscape:window-height="976"
     inkscape:window-x="0"
     inkscape:window-y="25"
     inkscape:window-maximized="1" />
  <metadata
     id="metadata7">
    <rdf:RDF>
      <cc:Work
         rdf:about="">
        <dc:format>image/svg+xml</dc:format>
        <dc:type
           rdf:resource="http://purl.org/dc/dcmitype/StillImage" />
        <dc:title></dc:title>
      </cc:Work>
    </rdf:RDF>
  </metadata>
  <g
     inkscape:label="Layer 1"
     inkscape:groupmode="layer"
     id="layer1"
     transform="translate(0,-988.36218)">
    <path
       sodipodi:type="arc"
       style="fill:#008000;fill-rule:evenodd;stroke:#000000;stroke-width:1px;stroke-linecap:butt;stroke-linejoin:miter;stroke-opacity:1"
       id="path2844"
       sodipodi:cx="11.255173"
       sodipodi:cy="10.902069"
       sodipodi:rx="7.5475864"
       sodipodi:ry="7.1062069"
       d="m 18.802759,10.902069 c 0,3.92465 -3.379169,7.106207 -7.547586,7.106207 -4.1684172,0 -7.5475867,-3.181557 -7.5475867,-7.106207 0,-3.9246496 3.3791695,-7.1062068 7.5475867,-7.1062068 4.168417,0 7.547586,3.1815572 7.547586,7.1062068 z"
       transform="translate(40.342069,992.33459)" />
    <path
       sodipodi:type="arc"
       style="fill:#008000;fill-rule:evenodd;stroke:#000000;stroke-width:1px;stroke-linecap:butt;stroke-linejoin:miter;stroke-opacity:1"
       id="path2844-6"
       sodipodi:cx="11.255173"
       sodipodi:cy="10.902069"
       sodipodi:rx="7.5475864"
       sodipodi:ry="7.1062069"
       d="m 18.802759,10.902069 c 0,3.92465 -3.379169,7.106207 -7.547586,7.106207 -4.1684172,0 -7.5475867,-3.181557 -7.5475867,-7.106207 0,-3.9246496 3.3791695,-7.1062068 7.5475867,-7.1062068 4.168417,0 7.547586,3.1815572 7.547586,7.1062068 z"
       transform="translate(13.285517,987.70008)" />
    <path
       sodipodi:type="arc"
       style="fill:#ff0000;fill-rule:evenodd;stroke:#000000;stroke-width:1px;stroke-linecap:butt;stroke-linejoin:miter;stroke-opacity:1"
       id="path2844-7"
       sodipodi:cx="11.255173"
       sodipodi:cy="10.902069"
       sodipodi:rx="7.5475864"
       sodipodi:ry="7.1062069"
       d="m 18.802759,10.902069 c 0,3.92465 -3.379169,7.106207 -7.547586,7.106207 -4.1684172,0 -7.5475867,-3.181557 -7.5475867,-7.106207 0,-3.9246496 3.3791695,-7.1062068 7.5475867,-7.1062068 4.168417,0 7.547586,3.1815572 7.547586,7.1062068 z"
       transform="translate(4.1048274,1005.267)" />
    <path
       sodipodi:type="arc"
       style="fill:#008000;fill-rule:evenodd;stroke:#000000;stroke-width:1px;stroke-linecap:butt;stroke-linejoin:miter;stroke-opacity:1"
       id="path2844-0"
       sodipodi:cx="11.255173"
       sodipodi:cy="10.902069"
       sodipodi:rx="7.5475864"
       sodipodi:ry="7.1062069"
       d="m 18.802759,10.902069 c 0,3.92465 -3.379169,7.106207 -7.547586,7.106207 -4.1684172,0 -7.5475867,-3.181557 -7.5475867,-7.106207 0,-3.9246496 3.3791695,-7.1062068 7.5475867,-7.1062068 4.168417,0 7.547586,3.1815572 7.547586,7.1062068 z"
       transform="translate(3.1337927,1029.4546)" />
    <path
       sodipodi:type="arc"
       style="fill:#ff0000;fill-rule:evenodd;stroke:#000000;stroke-width:1px;stroke-linecap:butt;stroke-linejoin:miter;stroke-opacity:1"
       id="path2844-4"
       sodipodi:cx="11.255173"
       sodipodi:cy="10.902069"
       sodipodi:rx="7.5475864"
       sodipodi:ry="7.1062069"
       d="m 18.802759,10.902069 c 0,3.92465 -3.379169,7.106207 -7.547586,7.106207 -4.1684172,0 -7.5475867,-3.181557 -7.5475867,-7.106207 0,-3.9246496 3.3791695,-7.1062068 7.5475867,-7.1062068 4.168417,0 7.547586,3.1815572 7.547586,7.1062068 z"
       transform="translate(39.326896,1016.9195)" />
    <path
       style="fill:none;stroke:#000000;stroke-width:2;stroke-linecap:butt;stroke-linejoin:miter;stroke-opacity:1;opacity:1;stroke-miterlimit:4;stroke-dasharray:none"
       d="m 14.895,34.868966 c -0.05517,1.224828 -0.09655,2.296552 -0.126724,3.23431 -0.03017,0.937759 -0.04914,1.741552 -0.05948,2.430517 -0.01034,0.688966 -0.01207,1.263104 -0.0078,1.741552 0.0043,0.478448 0.01466,0.861207 0.02845,1.167413 0.01379,0.306207 0.03103,0.535863 0.04914,0.708104 0.0181,0.172241 0.03707,0.287069 0.05431,0.363621 0.01724,0.07655 0.03276,0.114827 0.04397,0.133965 0.01121,0.01914 0.0181,0.01914 0.0181,0.01914"
       id="path2895"
       transform="translate(0,988.36218)"
       sodipodi:nodetypes="csssssssc" />
    <path
       style="fill:none;stroke:#000000;stroke-width:2;stroke-linecap:round;stroke-linejoin:round;stroke-opacity:1;stroke-miterlimit:4;stroke-dasharray:none"
       d="m 20.656552,22.422069 c 2.648276,-4.766897 2.648276,-4.766897 2.648276,-4.766897"
       id="path2897"
       transform="translate(0,988.36218)" />
    <path
       style="fill:#ff0000;stroke:#ff0000;stroke-width:2.48403716;stroke-linecap:round;stroke-linejoin:miter;stroke-miterlimit:4;stroke-opacity:1;stroke-dasharray:none"
       d="m 23.123334,1019.0935 c 6.919145,2.0935 11.551045,3.4949 14.651799,4.4333 6.279249,1.8999 6.279249,1.8999 6.279249,1.8999"
       id="path2901"
       sodipodi:nodetypes="csc" />
    <path
       style="fill:none;stroke:#000000;stroke-width:2;stroke-linecap:round;stroke-linejoin:round;stroke-opacity:1;stroke-miterlimit:4;stroke-dasharray:none"
       d="m 19.461733,1008.274 c 1.693077,2.4799 -1.502759,3.6719 1.693077,2.4799 3.195837,-1.1921 3.282767,-1.2075 3.282767,-1.2075"
       id="path2903" />
    <path
       style="fill:none;stroke:#000000;stroke-width:1px;stroke-linecap:butt;stroke-linejoin:miter;stroke-opacity:1"
       d="m 19.685517,22.598621 c 1.588966,0.264827 0.08828,0.08828 0,0 z"
       id="path2905"
       transform="translate(0,988.36218)" />
    <path
       style="fill:none;stroke:#000000;stroke-width:2;stroke-linecap:round;stroke-linejoin:round;stroke-miterlimit:4;stroke-opacity:1;stroke-dasharray:none"
       d="m 12.638628,1031.0902 c 2.657452,1.398 0.392237,3.9481 2.657452,1.398 2.265154,-2.5503 2.334765,-2.6045 2.334765,-2.6045"
       id="path2903-6"
       inkscape:transform-center-x="-1.5889655" />
    <path
       style="fill:none;stroke:#000000;stroke-width:2;stroke-linecap:round;stroke-linejoin:round;stroke-miterlimit:4;stroke-opacity:1;stroke-dasharray:none"
       d="m 48.701866,1018.3317 c 2.599052,1.5036 0.23324,3.9607 2.599052,1.5036 2.365863,-2.457 2.437611,-2.5085 2.437611,-2.5085"
       id="path2903-2" />
    <path
       style="fill:none;stroke:#ff0000;stroke-width:3;stroke-linecap:round;stroke-linejoin:round;stroke-miterlimit:4;stroke-opacity:1;stroke-dasharray:none"
       d="m 25.933224,1017.7356 c -2.324238,1.9011 -3.788072,-1.1797 -2.324238,1.9011 1.463931,3.0808 1.486745,3.1661 1.486745,3.1661"
       id="path2903-24" />
    <path
       style="fill:none;stroke:#000000;stroke-width:2;stroke-linecap:round;stroke-linejoin:round;stroke-opacity:1;stroke-miterlimit:4;stroke-dasharray:none"
       d="m 51.214659,1010.4223 c -0.473605,9.6432 -0.382441,9.7285 -0.382441,9.7285 l 0,0"
       id="path2956" />
    <path
       style="fill:none;stroke:#000000;stroke-width:2;stroke-linecap:round;stroke-linejoin:round;stroke-opacity:1;stroke-miterlimit:4;stroke-dasharray:none"
       d="m 41.578207,1003.4368 c 2.0669,-2.1782 3.906299,0.6943 2.0669,-2.1782 -1.839461,-2.87243 -1.872795,-2.95414 -1.872795,-2.95414"
       id="path2903-5" />
    <path
       style="fill:none;stroke:#000000;stroke-width:2;stroke-linecap:round;stroke-linejoin:round;stroke-opacity:1;stroke-miterlimit:4;stroke-dasharray:none"
       d="m 31.955862,11.122759 c 11.917241,2.56 12.005517,2.56 12.005517,2.56"
       id="path2967"
       transform="translate(0,988.36218)" />
  </g>
</svg>
