<svg xmlns="http://www.w3.org/2000/svg" viewBox="0 0 146 100"><path d="M51.1 25.52c-.187 12.306-8.799 22.704-20.876 25.13-6.072 1.218-12.407-.101-17.718-3.175C5.625 43.486 2.381 35.638 2.263 27.958 2.074 15.688 11.335 5.196 23.14 2.826c6.072-1.218 12.408.101 17.718 3.176C47.739 9.99 50.983 17.841 51.1 25.52M36.067 2.264C24.334-3.218 10.27 1.67 3.59 12.463-2.993 23.103.02 36.034 8.216 44.715c8.361 8.856 21.177 11.494 32.056 5.612 8.13-4.399 12.949-13.203 13.089-22.314C53.191 17 45.964 6.889 36.067 2.264" fill="#9c9b9b"/><path d="M51.099 25.52c-.186 12.306-8.798 22.704-20.875 25.128-6.072 1.218-12.407-.101-17.718-3.175C5.625 43.486 2.381 35.638 2.264 27.958c-.19-12.27 9.071-22.762 20.876-25.132 6.072-1.218 12.408.102 17.717 3.177 6.882 3.988 10.126 11.838 10.242 19.517M36.067 2.265C24.334-3.218 10.27 1.671 3.59 12.463c-6.582 10.64-3.57 23.57 4.626 32.252 8.361 8.856 21.177 11.494 32.056 5.611 8.13-4.399 12.947-13.202 13.087-22.313C53.19 17 45.964 6.89 36.067 2.265z" fill="#d9dadb"/><path d="M51.099 25.52c-.186 12.306-8.798 22.704-20.875 25.128-6.072 1.218-12.407-.101-17.718-3.175C5.625 43.486 2.381 35.638 2.264 27.958c-.19-12.27 9.071-22.762 20.876-25.132 6.072-1.218 12.408.102 17.717 3.177 6.882 3.988 10.126 11.838 10.242 19.517M36.067 2.265C24.334-3.218 10.27 1.671 3.59 12.463c-6.582 10.64-3.57 23.57 4.626 32.252 8.361 8.856 21.177 11.494 32.056 5.611 8.13-4.399 12.947-13.202 13.087-22.313C53.19 17 45.964 6.89 36.067 2.265z" fill="none" stroke="#d9d9d9" stroke-width=".066"/><path d="M127.493 32.923h18.12v-6.398h-25.78v43.229h7.66V52.145h15.295v-6.427h-15.295V32.923zm-24.481 36.831h7.633V26.525h-7.633v43.229zm-7.351-37.758a4.527 4.527 0 0 0 .737-2.512v-2.959H66.149v6.398H86.56L65.527 64.402a4.955 4.955 0 0 0-.509 1.032 3.418 3.418 0 0 0-.198 1.151v3.169h31.07v-6.427H74.687l20.974-31.331zm-34.12 24.873c1-2.651 1.499-5.559 1.499-8.73 0-3.168-.499-6.078-1.499-8.728-.998-2.651-2.402-4.927-4.211-6.833-1.809-1.903-3.987-3.388-6.532-4.453-2.543-1.066-5.361-1.599-8.452-1.599H26.74v43.229h15.606c3.091 0 5.909-.529 8.452-1.585 2.545-1.056 4.723-2.541 6.532-4.454 1.809-1.915 3.213-4.196 4.211-6.847zm-6.276-8.73c0 2.374-.302 4.5-.904 6.384-.605 1.883-1.461 3.476-2.573 4.782a11.102 11.102 0 0 1-4.058 3.005c-1.59.698-3.387 1.046-5.385 1.046H34.4V32.923h7.945c1.998 0 3.795.348 5.385 1.046a11.109 11.109 0 0 1 4.058 3.003c1.112 1.307 1.969 2.9 2.573 4.786.603 1.883.904 4.011.904 6.381zM25.084 17.946a8.347 8.347 0 1 0-16.694 0 8.347 8.347 0 0 0 16.694 0zm4.099 80.177v-4.976h1.533v-1.041h-1.582v-.403c0-.225.026-.414.075-.566a.868.868 0 0 1 .215-.366.795.795 0 0 1 .347-.196c.136-.038.29-.056.465-.056.129 0 .243-.013.343-.041.097-.028.151-.099.159-.213l.029-.734c-.24-.075-.5-.113-.781-.113-.352 0-.667.051-.947.155a1.951 1.951 0 0 0-.714.444 1.946 1.946 0 0 0-.449.703 2.62 2.62 0 0 0-.157.935v.45h-.905v.597a.31.31 0 0 0 .103.248c.069.06.161.099.276.118l.526.083v4.971h1.464v.001zm3.913-5.947c-.37.146-.686.353-.949.622a2.761 2.761 0 0 0-.61.982 3.67 3.67 0 0 0-.215 1.296c0 .482.071.916.215 1.302.145.387.347.717.61.989.263.271.579.481.949.627.372.146.784.219 1.237.219.454 0 .865-.073 1.235-.219.368-.146.683-.355.943-.627.26-.272.461-.602.603-.989a3.75 3.75 0 0 0 .213-1.302 3.74 3.74 0 0 0-.213-1.296 2.747 2.747 0 0 0-.603-.982 2.653 2.653 0 0 0-.943-.622 3.336 3.336 0 0 0-1.235-.219c-.453 0-.865.073-1.237.219zm.102 4.4c-.246-.341-.367-.837-.367-1.488s.122-1.149.367-1.494c.243-.345.623-.518 1.135-.518.505 0 .88.172 1.122.515.242.344.364.843.364 1.498s-.122 1.152-.364 1.492c-.242.339-.617.509-1.122.509-.512-.002-.891-.172-1.135-.514zm6.901 1.547v-3.781c.148-.324.333-.569.55-.736.217-.168.477-.252.781-.252.17 0 .307.013.409.041a.96.96 0 0 0 .242.041c.067 0 .12-.015.159-.045.039-.029.066-.079.078-.151l.19-1.094c-.198-.139-.447-.208-.747-.208-.363 0-.69.11-.982.326a2.878 2.878 0 0 0-.763.887l-.09-.734c-.019-.134-.058-.229-.117-.283-.061-.055-.165-.083-.314-.083h-.859v6.071h1.463v.001zm7.769-8.556H46.27v8.556h1.599v-8.556h-.001zm3.381 8.556v-4.391c.197-.197.406-.353.627-.467.221-.114.459-.172.71-.172.343 0 .601.101.773.304s.257.49.257.861v3.864h1.462v-3.864c0-.339-.044-.65-.134-.932a2.087 2.087 0 0 0-.389-.727 1.761 1.761 0 0 0-.642-.473 2.168 2.168 0 0 0-.882-.169c-.206 0-.394.02-.568.06a2.139 2.139 0 0 0-.488.172 2.6 2.6 0 0 0-.432.266 3.276 3.276 0 0 0-.387.343l-.102-.479c-.058-.178-.182-.266-.372-.266h-.893v6.071h1.46v-.001zm7.101 0v-4.976h1.532v-1.041h-1.579v-.403c0-.225.024-.414.074-.566a.879.879 0 0 1 .215-.366.8.8 0 0 1 .347-.196c.135-.038.291-.056.464-.056.131 0 .246-.013.344-.041.099-.028.152-.099.159-.213l.029-.734a2.614 2.614 0 0 0-.781-.113c-.35 0-.667.051-.947.155-.28.102-.518.251-.713.444a1.935 1.935 0 0 0-.45.703 2.62 2.62 0 0 0-.156.935v.45h-.905v.597c0 .106.034.188.102.248.069.06.161.099.275.118l.528.083v4.971h1.462v.001zm3.845-5.93c-.36.158-.667.372-.917.642-.251.27-.443.588-.577.953a3.367 3.367 0 0 0-.202 1.169c0 .533.078 1.001.231 1.405.153.405.365.743.633 1.018.269.274.584.481.948.622.363.14.755.209 1.178.209.213 0 .432-.016.659-.047.228-.032.449-.085.668-.162.219-.078.431-.18.63-.308.202-.129.384-.287.545-.477l-.426-.533a.316.316 0 0 0-.266-.136.569.569 0 0 0-.281.083 9.411 9.411 0 0 1-.337.184 2.78 2.78 0 0 1-.45.184 2.018 2.018 0 0 1-.612.083c-.482 0-.869-.146-1.161-.438-.292-.292-.46-.749-.502-1.372h3.751a.438.438 0 0 0 .167-.027.219.219 0 0 0 .104-.089.42.42 0 0 0 .053-.172 3.293 3.293 0 0 0-.18-1.444 2.447 2.447 0 0 0-.545-.864 2.3 2.3 0 0 0-.832-.535 2.928 2.928 0 0 0-1.056-.184c-.454 0-.862.079-1.223.236zm1.82.921a1.134 1.134 0 0 1 .639.74c.051.168.077.345.077.535h-2.745c.066-.442.22-.784.46-1.023.241-.241.574-.361 1-.361.218 0 .406.036.569.109zm8.07-.311a2.915 2.915 0 0 0-.921-.627c-.341-.146-.737-.219-1.192-.219a3.19 3.19 0 0 0-1.265.236 2.583 2.583 0 0 0-.924.655 2.82 2.82 0 0 0-.566.988 3.87 3.87 0 0 0-.192 1.24c0 .498.073.94.217 1.329.144.389.338.718.586.985.246.269.535.472.866.613.331.14.684.209 1.058.209.214 0 .428-.016.646-.047.217-.032.427-.085.63-.162a2.726 2.726 0 0 0 1.116-.785l-.421-.533a.296.296 0 0 0-.265-.136c-.091 0-.173.029-.246.086s-.159.12-.258.19c-.099.068-.22.131-.364.188a1.563 1.563 0 0 1-.566.086 1.44 1.44 0 0 1-.628-.134 1.282 1.282 0 0 1-.472-.39 1.813 1.813 0 0 1-.299-.636 3.28 3.28 0 0 1-.103-.864c0-.311.03-.59.094-.837.063-.247.161-.456.287-.63.129-.174.29-.307.483-.399a1.55 1.55 0 0 1 .675-.14c.201 0 .37.023.506.068.136.046.253.097.352.154.099.057.184.108.254.153a.397.397 0 0 0 .219.068.297.297 0 0 0 .18-.047.753.753 0 0 0 .128-.13l.385-.532zm4.215 5.279c.276-.09.521-.225.734-.403l-.438-.709a.5.5 0 0 0-.089-.099.172.172 0 0 0-.107-.032.207.207 0 0 0-.106.032 1.624 1.624 0 0 1-.281.136.676.676 0 0 1-.227.033.489.489 0 0 1-.38-.159c-.095-.107-.141-.254-.141-.444v-3.29h1.598v-1.041h-1.598v-1.913h-.757a.342.342 0 0 0-.217.066.29.29 0 0 0-.11.184l-.307 1.657-.977.159v.58c0 .102.029.179.085.23a.298.298 0 0 0 .204.078h.616v3.391c0 .524.142.936.426 1.234.285.298.689.447 1.213.447.297-.001.583-.046.859-.137zm1.878-6.03v6.071h1.461v-6.071h-1.461zm1.604-2.136a.957.957 0 0 0-.869-.568.874.874 0 0 0-.359.074.942.942 0 0 0-.49.494.9.9 0 0 0-.074.366c0 .127.024.246.074.355a.98.98 0 0 0 .198.291.96.96 0 0 0 .292.198.89.89 0 0 0 .359.073c.13 0 .252-.024.366-.073a.993.993 0 0 0 .299-.198.998.998 0 0 0 .204-.291.836.836 0 0 0 .077-.355.903.903 0 0 0-.077-.366zm2.98 2.26a2.668 2.668 0 0 0-.951.622c-.26.268-.465.595-.608.982a3.693 3.693 0 0 0-.217 1.296c0 .482.073.916.217 1.302.144.387.348.717.608.989.263.271.579.481.951.627.37.146.784.219 1.236.219.453 0 .864-.073 1.234-.219.37-.146.684-.355.944-.627.26-.272.462-.602.603-.989.141-.386.214-.82.214-1.302 0-.477-.073-.909-.214-1.296a2.733 2.733 0 0 0-.603-.982 2.64 2.64 0 0 0-.944-.622 3.334 3.334 0 0 0-1.234-.219c-.453 0-.866.073-1.236.219zm.1 4.4c-.243-.341-.367-.837-.367-1.488s.124-1.149.367-1.494c.246-.345.623-.518 1.136-.518.506 0 .878.172 1.122.515.243.344.363.843.363 1.498s-.119 1.152-.363 1.492c-.243.339-.616.509-1.122.509-.513-.002-.891-.172-1.136-.514zm6.9 1.547v-4.391c.197-.197.406-.353.628-.467a1.53 1.53 0 0 1 .711-.172c.343 0 .601.101.771.304.173.203.258.49.258.861v3.864h1.462v-3.864c0-.339-.044-.65-.134-.932a2.044 2.044 0 0 0-.392-.727 1.721 1.721 0 0 0-.64-.473 2.18 2.18 0 0 0-.883-.169c-.204 0-.394.02-.567.06a2.13 2.13 0 0 0-.489.172 2.632 2.632 0 0 0-.431.266 3.461 3.461 0 0 0-.389.343l-.1-.479c-.058-.178-.183-.266-.372-.266h-.893v6.071h1.46v-.001zM99.96 94.78a.78.78 0 0 1 .358.066c.08.043.153.116.221.219l1.798 2.74a.718.718 0 0 0 .246.236.693.693 0 0 0 .353.083h1.431l-2.141-3.16a1.566 1.566 0 0 0-.521-.491c.299-.095.567-.22.803-.378a2.348 2.348 0 0 0 .956-1.249c.085-.255.129-.528.129-.816a2.59 2.59 0 0 0-.187-.996 1.946 1.946 0 0 0-.586-.779c-.265-.217-.606-.386-1.022-.506-.416-.12-.917-.18-1.501-.18h-2.608v8.556h1.591V94.78h.68zm-.681-3.988h1.017c.589 0 1.024.117 1.312.349.285.234.428.568.428 1.002 0 .218-.034.417-.107.599a1.255 1.255 0 0 1-.321.472 1.52 1.52 0 0 1-.55.311 2.443 2.443 0 0 1-.786.112h-.993v-2.845zm7.246 1.401a2.696 2.696 0 0 0-1.494 1.595 3.367 3.367 0 0 0-.202 1.169c0 .533.078 1.001.231 1.405.153.405.365.743.633 1.018.268.274.584.481.947.622.365.14.757.209 1.178.209.214 0 .433-.016.659-.047.226-.032.45-.085.669-.162.219-.078.428-.18.63-.308.202-.129.382-.287.545-.477l-.426-.533a.332.332 0 0 0-.112-.1.318.318 0 0 0-.156-.036.568.568 0 0 0-.28.083 8.719 8.719 0 0 1-.338.184 2.717 2.717 0 0 1-.448.184 2.029 2.029 0 0 1-.613.083c-.482 0-.869-.146-1.161-.438-.292-.292-.46-.749-.504-1.372h3.752a.428.428 0 0 0 .165-.027c.044-.018.078-.047.105-.089s.044-.099.053-.172a3.293 3.293 0 0 0-.18-1.444 2.308 2.308 0 0 0-1.377-1.399 2.932 2.932 0 0 0-1.056-.184c-.453 0-.86.079-1.22.236zm1.818.921a1.132 1.132 0 0 1 .64.74c.053.168.078.345.078.535h-2.747c.068-.442.224-.784.462-1.023.241-.241.574-.361 1-.361.219 0 .406.036.567.109zm7.373-.405a2.602 2.602 0 0 0-.859-.545 3.05 3.05 0 0 0-1.141-.207c-.375 0-.706.05-.99.151a2.169 2.169 0 0 0-.718.403 1.724 1.724 0 0 0-.581 1.298c0 .269.041.498.127.687.085.189.197.349.338.479.139.13.299.237.479.322.178.084.363.158.55.221.187.063.37.122.55.174.18.053.341.114.479.181.139.067.253.146.338.236a.5.5 0 0 1 .126.349.713.713 0 0 1-.056.276.625.625 0 0 1-.178.234.99.99 0 0 1-.309.162 1.42 1.42 0 0 1-.445.063c-.222 0-.404-.027-.548-.078a2.543 2.543 0 0 1-.377-.165 4.57 4.57 0 0 1-.28-.165.477.477 0 0 0-.258-.077.432.432 0 0 0-.224.052.487.487 0 0 0-.156.154l-.336.556c.119.107.256.206.411.296.156.091.324.17.509.237.185.067.375.119.574.157.199.038.404.056.613.056.389 0 .735-.05 1.037-.151.304-.101.557-.241.762-.42.204-.18.36-.393.467-.64.107-.246.161-.516.161-.808 0-.245-.044-.453-.129-.627a1.419 1.419 0 0 0-.336-.447 1.923 1.923 0 0 0-.477-.308 6.002 6.002 0 0 0-.545-.217 14.02 14.02 0 0 0-.543-.174 3.137 3.137 0 0 1-.477-.181 1.133 1.133 0 0 1-.338-.234.457.457 0 0 1-.127-.329.57.57 0 0 1 .248-.479c.165-.122.392-.184.679-.184.187 0 .348.021.484.06.136.04.258.084.365.134l.28.133c.08.039.156.06.226.06a.326.326 0 0 0 .168-.039.448.448 0 0 0 .124-.133l.333-.523zm2.698-.516c-.36.158-.667.372-.917.642-.251.27-.443.588-.577.953a3.367 3.367 0 0 0-.202 1.169c0 .533.078 1.001.231 1.405.153.405.365.743.633 1.018.27.274.586.481.949.622.363.14.754.209 1.175.209.214 0 .436-.016.662-.047.226-.032.45-.085.669-.162.217-.078.428-.18.628-.308.202-.129.384-.287.545-.477l-.426-.533a.314.314 0 0 0-.265-.136.57.57 0 0 0-.282.083 8.719 8.719 0 0 1-.338.184 2.682 2.682 0 0 1-.448.184 2.029 2.029 0 0 1-.613.083c-.482 0-.869-.146-1.161-.438-.292-.292-.457-.749-.501-1.372h3.75a.43.43 0 0 0 .166-.027.212.212 0 0 0 .105-.089.42.42 0 0 0 .054-.172 3.293 3.293 0 0 0-.18-1.444 2.447 2.447 0 0 0-.545-.864 2.283 2.283 0 0 0-.832-.535 2.932 2.932 0 0 0-1.056-.184c-.455 0-.864.079-1.224.236zm1.82.921c.163.073.295.173.402.298.107.127.187.274.238.442.051.168.075.345.075.535h-2.745c.068-.442.222-.784.46-1.023.241-.241.574-.361 1-.361.22 0 .407.036.57.109zm8.076 1.174c0-.343-.051-.658-.151-.946a2.098 2.098 0 0 0-.441-.742 2.033 2.033 0 0 0-.708-.486 2.422 2.422 0 0 0-.949-.175c-.988 0-1.83.32-2.528.959l.265.468a.636.636 0 0 0 .173.189.424.424 0 0 0 .253.077.643.643 0 0 0 .326-.083c.1-.055.207-.117.324-.186a1.816 1.816 0 0 1 1.002-.269c.326 0 .577.097.749.293.17.195.258.495.258.901v.355c-.691.016-1.27.083-1.735.202-.467.118-.839.266-1.119.447-.28.179-.479.381-.601.603-.119.223-.18.449-.18.678 0 .273.044.511.131.715.088.206.207.377.363.516.156.137.343.241.56.31.217.069.455.103.711.103.217 0 .414-.018.591-.053a2.388 2.388 0 0 0 .961-.423c.148-.103.299-.225.452-.364l.131.433c.039.125.1.209.178.251a.707.707 0 0 0 .324.062h.659v-3.835h.001zm-3.436 2.759c-.153-.111-.229-.294-.229-.55 0-.13.036-.251.11-.361.073-.111.197-.207.37-.29a2.73 2.73 0 0 1 .691-.204c.285-.054.64-.09 1.068-.109v1.023c-.11.111-.214.207-.319.287-.105.082-.212.15-.324.204a1.596 1.596 0 0 1-.36.124 1.892 1.892 0 0 1-.414.041c-.242 0-.442-.055-.593-.165zm6.509 1.076v-3.781c.151-.324.333-.569.55-.736.219-.168.479-.252.784-.252.168 0 .304.013.406.041.105.028.185.041.243.041a.244.244 0 0 0 .158-.045c.041-.029.066-.079.078-.151l.19-1.094c-.197-.139-.445-.208-.745-.208-.365 0-.691.11-.983.326a2.88 2.88 0 0 0-.764.887l-.088-.734c-.019-.134-.061-.229-.119-.283-.061-.055-.163-.083-.314-.083h-.859v6.071h1.463v.001zm8.089-5.32a2.933 2.933 0 0 0-.92-.627c-.341-.146-.74-.219-1.192-.219-.477 0-.9.079-1.265.236a2.596 2.596 0 0 0-.925.655 2.815 2.815 0 0 0-.564.988 3.842 3.842 0 0 0-.192 1.24c0 .498.071.94.217 1.329.144.389.338.718.584.985.248.269.535.472.869.613.331.14.684.209 1.058.209.212 0 .428-.016.645-.047a2.908 2.908 0 0 0 1.219-.47 2.61 2.61 0 0 0 .526-.477l-.418-.533a.3.3 0 0 0-.268-.136c-.09 0-.17.029-.246.086-.071.057-.158.12-.256.19-.1.068-.221.131-.365.188a1.552 1.552 0 0 1-.564.086 1.43 1.43 0 0 1-.628-.134 1.316 1.316 0 0 1-.475-.39 1.846 1.846 0 0 1-.297-.636 3.195 3.195 0 0 1-.105-.864c0-.311.032-.59.095-.837s.158-.456.287-.63c.129-.174.29-.307.482-.399a1.56 1.56 0 0 1 .674-.14c.202 0 .37.023.509.068.134.046.253.097.35.154.097.057.183.108.253.153a.408.408 0 0 0 .221.068.297.297 0 0 0 .18-.047.714.714 0 0 0 .126-.13l.385-.532zm2.586 5.32v-4.391c.197-.197.406-.353.628-.467a1.52 1.52 0 0 1 .711-.172c.343 0 .599.101.771.304.173.203.258.49.258.861v3.864h1.462v-3.864c0-.339-.046-.65-.134-.932a2.076 2.076 0 0 0-.392-.727 1.713 1.713 0 0 0-.642-.473 2.164 2.164 0 0 0-.881-.169 2.27 2.27 0 0 0-1 .207c-.285.139-.545.32-.781.545v-3.38h-1.462v8.794h1.462zM30.349 84.658a2.502 2.502 0 0 1-.888-.607 2.753 2.753 0 0 1-.579-.973 3.86 3.86 0 0 1-.207-1.316c0-.457.063-.872.195-1.243.129-.37.315-.689.556-.953.24-.264.532-.467.872-.61a2.977 2.977 0 0 1 1.146-.213c.26 0 .489.018.689.054.2.035.38.08.539.136.159.055.305.12.438.195.133.075.262.151.388.225a.534.534 0 0 0 .29.095c.15 0 .27-.073.36-.219l.462-.721a4.169 4.169 0 0 0-1.299-.808c-.511-.208-1.114-.311-1.813-.311-.684 0-1.299.107-1.847.32a3.97 3.97 0 0 0-1.399.899 4.016 4.016 0 0 0-.891 1.385 4.837 4.837 0 0 0-.314 1.77c0 .635.107 1.22.321 1.757.217.537.515.999.898 1.384.382.387.836.689 1.36.906.526.217 1.1.325 1.723.325.35 0 .679-.018.983-.056.303-.038.588-.094.854-.169a4.3 4.3 0 0 0 1.428-.698v-3.461h-2.846v.899c0 .084.031.153.089.21.06.057.14.086.243.086h1.071v1.556a3.983 3.983 0 0 1-.76.269 3.937 3.937 0 0 1-.938.097 2.967 2.967 0 0 1-1.124-.21zm7.222-4.548a2.67 2.67 0 0 0-.917.641 2.831 2.831 0 0 0-.578.954 3.361 3.361 0 0 0-.201 1.168c0 .533.077 1.001.231 1.405.153.405.365.745.633 1.018.268.274.584.482.947.622s.755.209 1.178.209c.213 0 .433-.016.659-.047.226-.032.45-.085.669-.162.219-.077.428-.18.63-.308.202-.129.382-.287.545-.477l-.426-.533a.355.355 0 0 0-.113-.1.315.315 0 0 0-.154-.035.555.555 0 0 0-.28.083 16.36 16.36 0 0 1-.338.184 2.837 2.837 0 0 1-.45.183c-.17.056-.375.083-.612.083-.481 0-.867-.146-1.16-.438-.292-.292-.46-.749-.504-1.372h3.752a.413.413 0 0 0 .165-.027.216.216 0 0 0 .105-.089.455.455 0 0 0 .052-.172c.01-.073.015-.164.015-.275a3.25 3.25 0 0 0-.195-1.169 2.473 2.473 0 0 0-.544-.864c-.234-.235-.511-.412-.832-.535s-.674-.184-1.056-.184c-.455 0-.861.079-1.221.237zm1.819.92c.162.073.296.173.403.299.107.125.185.272.236.44.051.168.078.347.078.535H37.36c.068-.442.222-.782.462-1.023.241-.241.574-.361 1-.361.216 0 .406.037.568.11zm4.855 5.009v-3.781c.151-.324.333-.568.55-.736a1.24 1.24 0 0 1 .781-.252c.17 0 .306.015.409.041a.973.973 0 0 0 .243.041.265.265 0 0 0 .159-.044c.04-.03.065-.08.077-.151l.19-1.095c-.197-.139-.445-.207-.746-.207-.364 0-.69.108-.982.325a2.872 2.872 0 0 0-.764.888l-.089-.734c-.019-.135-.06-.229-.118-.285-.06-.055-.164-.083-.314-.083h-.859v6.071h1.463v.002zm4.945 0v-4.443c.158-.182.329-.325.512-.429.184-.105.38-.157.589-.157.32 0 .561.093.725.279.164.185.246.481.246.887v3.864h1.467v-3.864c0-.189.028-.356.083-.502.055-.146.131-.268.227-.364.097-.097.209-.17.338-.223.128-.051.268-.077.416-.077.328 0 .577.097.747.293.169.195.253.485.253.872v3.864h1.462v-3.864c0-.366-.046-.692-.139-.976a1.976 1.976 0 0 0-.406-.723 1.716 1.716 0 0 0-.657-.449 2.388 2.388 0 0 0-.893-.155c-.192 0-.386.022-.577.066-.192.042-.372.11-.541.201a1.982 1.982 0 0 0-.468.352c-.141.145-.26.318-.354.518a1.881 1.881 0 0 0-.554-.825c-.246-.208-.562-.311-.944-.311a1.918 1.918 0 0 0-.926.231 2.135 2.135 0 0 0-.373.254 3.52 3.52 0 0 0-.333.326l-.095-.45c-.058-.178-.184-.266-.372-.266h-.894v6.071h1.461zm13.368-3.835c0-.343-.05-.658-.151-.946a2.09 2.09 0 0 0-.44-.742 2.023 2.023 0 0 0-.708-.486 2.422 2.422 0 0 0-.949-.174c-.987 0-1.829.319-2.527.959l.266.467a.62.62 0 0 0 .172.189.42.42 0 0 0 .254.078.661.661 0 0 0 .326-.083c.097-.056.206-.118.321-.187.117-.068.254-.13.411-.186a1.82 1.82 0 0 1 .593-.083c.327 0 .578.097.748.293.173.195.258.496.258.901v.355c-.691.016-1.268.083-1.735.202-.465.118-.837.268-1.117.447-.28.18-.482.381-.601.603-.12.223-.18.449-.18.678 0 .273.042.511.129.717.088.204.209.376.365.515.156.137.342.241.56.31.217.069.452.103.709.103.218 0 .415-.017.593-.053.176-.035.344-.088.501-.159a2.76 2.76 0 0 0 .46-.263c.148-.105.299-.226.453-.364l.13.432c.039.125.099.209.176.251.08.041.187.062.326.062h.657v-3.836zm-3.436 2.758c-.151-.111-.226-.293-.226-.55 0-.13.037-.251.109-.361.073-.111.195-.207.37-.29a2.81 2.81 0 0 1 .689-.204c.286-.054.642-.09 1.068-.11v1.024a3.106 3.106 0 0 1-.316.286 1.8 1.8 0 0 1-.326.204 1.487 1.487 0 0 1-.358.124 1.918 1.918 0 0 1-.414.041c-.245.001-.443-.053-.596-.164zm6.512 1.077v-4.391c.197-.197.406-.353.627-.467.22-.114.457-.172.709-.172.344 0 .601.102.774.304.17.204.256.492.256.861v3.864h1.461v-3.864c0-.339-.044-.65-.133-.932a2.074 2.074 0 0 0-.391-.727 1.745 1.745 0 0 0-.642-.473 2.164 2.164 0 0 0-.881-.169c-.206 0-.395.02-.569.06a2.114 2.114 0 0 0-.487.172 2.634 2.634 0 0 0-.433.266 3.276 3.276 0 0 0-.387.343l-.101-.479c-.06-.178-.184-.266-.373-.266h-.893v6.071h1.463v-.001zm13.609-1.985a.57.57 0 0 0-.124.085c-.13.118-.262.218-.393.299a2.217 2.217 0 0 1-.906.31 4.365 4.365 0 0 1-.588.035 2.54 2.54 0 0 1-1.018-.204 2.33 2.33 0 0 1-.822-.589 2.847 2.847 0 0 1-.554-.947 3.775 3.775 0 0 1-.203-1.283c0-.466.068-.885.203-1.258.136-.372.326-.69.568-.95.242-.26.533-.46.87-.6.337-.14.707-.211 1.11-.211.343 0 .627.035.849.107a2.94 2.94 0 0 1 .914.461.471.471 0 0 0 .279.107.343.343 0 0 0 .204-.054.495.495 0 0 0 .122-.124l.532-.74a3.88 3.88 0 0 0-1.222-.808c-.476-.203-1.031-.305-1.666-.305-.651 0-1.246.108-1.785.322-.538.215-1 .516-1.387.903a4.058 4.058 0 0 0-.9 1.382 4.749 4.749 0 0 0-.319 1.767c0 .635.095 1.22.287 1.757.191.537.467.999.825 1.384.36.387.792.689 1.299.906.506.217 1.078.325 1.713.325.709 0 1.319-.114 1.825-.343a3.444 3.444 0 0 0 1.281-.988l-.626-.681a.3.3 0 0 0-.225-.1.343.343 0 0 0-.143.035zm3.47-3.944a2.68 2.68 0 0 0-.917.641 2.813 2.813 0 0 0-.577.954 3.316 3.316 0 0 0-.202 1.168c0 .533.076 1.001.231 1.405.153.405.365.745.633 1.018.268.274.584.482.946.622.363.14.754.209 1.178.209.214 0 .433-.016.659-.047.226-.032.45-.085.669-.162.219-.077.428-.18.63-.308.202-.129.382-.287.545-.477l-.426-.533a.348.348 0 0 0-.114-.1.299.299 0 0 0-.153-.035.552.552 0 0 0-.28.083 16.36 16.36 0 0 1-.338.184 2.837 2.837 0 0 1-.45.183c-.17.056-.375.083-.611.083-.482 0-.869-.146-1.161-.438-.292-.292-.46-.749-.504-1.372h3.752a.41.41 0 0 0 .165-.027.216.216 0 0 0 .105-.089.536.536 0 0 0 .054-.172 3.248 3.248 0 0 0-.182-1.444 2.442 2.442 0 0 0-.543-.864 2.335 2.335 0 0 0-.832-.535 2.932 2.932 0 0 0-1.056-.184c-.454 0-.861.079-1.221.237zm1.818.92c.163.073.297.173.404.299.107.125.185.272.236.44.051.168.078.347.078.535h-2.747c.068-.442.221-.782.462-1.023.241-.241.574-.361 1-.361.217 0 .406.037.567.11zm4.857 5.009v-4.391c.197-.197.406-.353.628-.467.221-.114.457-.172.71-.172.343 0 .601.102.771.304.173.204.258.491.258.861v3.864h1.462v-3.864c0-.339-.046-.65-.134-.932a2.076 2.076 0 0 0-.392-.727 1.713 1.713 0 0 0-.642-.473 2.164 2.164 0 0 0-.881-.169c-.204 0-.394.02-.567.06a2.097 2.097 0 0 0-.489.172 2.72 2.72 0 0 0-.433.266 3.443 3.443 0 0 0-.387.343l-.1-.479a.36.36 0 0 0-.372-.266h-.896v6.071h1.464v-.001zm8.173-.042c.275-.09.521-.224.732-.401l-.438-.711a.512.512 0 0 0-.088-.097.169.169 0 0 0-.107-.033.202.202 0 0 0-.107.033 1.414 1.414 0 0 1-.28.136.718.718 0 0 1-.229.032.485.485 0 0 1-.379-.159c-.095-.107-.141-.254-.141-.444v-3.29h1.599v-1.041h-1.599V78.11h-.757a.348.348 0 0 0-.217.065.284.284 0 0 0-.109.184l-.309 1.657-.976.159v.58c0 .102.029.179.085.231a.301.301 0 0 0 .204.077h.616v3.391c0 .524.144.936.426 1.234.285.298.689.447 1.214.447a2.79 2.79 0 0 0 .86-.138zm3.012-5.887a2.71 2.71 0 0 0-.917.641 2.813 2.813 0 0 0-.577.954 3.361 3.361 0 0 0-.202 1.168c0 .533.078 1.001.231 1.405.156.405.365.745.635 1.018.268.274.582.482.946.622.363.14.754.209 1.178.209.212 0 .433-.016.659-.047.226-.032.45-.085.669-.162.219-.077.428-.18.628-.308.202-.129.384-.287.545-.477l-.426-.533a.332.332 0 0 0-.112-.1.314.314 0 0 0-.153-.035.556.556 0 0 0-.282.083c-.095.055-.209.115-.336.184-.129.067-.28.128-.45.183a1.998 1.998 0 0 1-.613.083c-.482 0-.869-.146-1.161-.438-.292-.292-.457-.749-.501-1.372h3.75a.428.428 0 0 0 .168-.027.21.21 0 0 0 .102-.089.42.42 0 0 0 .054-.172c.01-.073.015-.164.015-.275 0-.438-.063-.827-.195-1.169a2.419 2.419 0 0 0-.545-.864 2.301 2.301 0 0 0-.83-.535 2.948 2.948 0 0 0-1.059-.184c-.452 0-.858.079-1.221.237zm1.82.92c.163.073.297.173.402.299.107.125.187.272.238.44.051.168.075.347.075.535h-2.745c.066-.442.221-.782.462-1.023.238-.241.572-.361 1-.361.218 0 .408.037.568.11zm4.857 5.009v-3.781c.149-.324.333-.568.55-.736.217-.168.477-.252.781-.252.168 0 .307.015.409.041a.96.96 0 0 0 .241.041.265.265 0 0 0 .161-.044c.039-.03.066-.08.078-.151l.19-1.095c-.199-.139-.448-.207-.747-.207-.363 0-.691.108-.983.325a2.88 2.88 0 0 0-.762.888l-.09-.734c-.019-.135-.058-.229-.117-.285-.061-.055-.165-.083-.314-.083h-.859v6.071h1.462v.002z" fill="#001e50"/></svg>